<svg id="visual" viewBox="0 0 900 600" width="900" height="600" xmlns="http://www.w3.org/2000/svg" xmlns:xlink="http://www.w3.org/1999/xlink" version="1.1"><rect x="0" y="0" width="900" height="600" fill="#ffffff"></rect><defs><linearGradient id="grad1_0" x1="33.3%" y1="100%" x2="100%" y2="0%"><stop offset="20%" stop-color="#ff0066" stop-opacity="1"></stop><stop offset="80%" stop-color="#ff0066" stop-opacity="1"></stop></linearGradient></defs><defs><linearGradient id="grad1_1" x1="33.3%" y1="100%" x2="100%" y2="0%"><stop offset="20%" stop-color="#ff0066" stop-opacity="1"></stop><stop offset="80%" stop-color="#ff7d96" stop-opacity="1"></stop></linearGradient></defs><defs><linearGradient id="grad1_2" x1="33.3%" y1="100%" x2="100%" y2="0%"><stop offset="20%" stop-color="#ffc0c9" stop-opacity="1"></stop><stop offset="80%" stop-color="#ff7d96" stop-opacity="1"></stop></linearGradient></defs><defs><linearGradient id="grad1_3" x1="33.3%" y1="100%" x2="100%" y2="0%"><stop offset="20%" stop-color="#ffc0c9" stop-opacity="1"></stop><stop offset="80%" stop-color="#ffffff" stop-opacity="1"></stop></linearGradient></defs><defs><linearGradient id="grad2_0" x1="0%" y1="100%" x2="66.7%" y2="0%"><stop offset="20%" stop-color="#ff0066" stop-opacity="1"></stop><stop offset="80%" stop-color="#ff0066" stop-opacity="1"></stop></linearGradient></defs><defs><linearGradient id="grad2_1" x1="0%" y1="100%" x2="66.7%" y2="0%"><stop offset="20%" stop-color="#ff7d96" stop-opacity="1"></stop><stop offset="80%" stop-color="#ff0066" stop-opacity="1"></stop></linearGradient></defs><defs><linearGradient id="grad2_2" x1="0%" y1="100%" x2="66.7%" y2="0%"><stop offset="20%" stop-color="#ff7d96" stop-opacity="1"></stop><stop offset="80%" stop-color="#ffc0c9" stop-opacity="1"></stop></linearGradient></defs><defs><linearGradient id="grad2_3" x1="0%" y1="100%" x2="66.7%" y2="0%"><stop offset="20%" stop-color="#ffffff" stop-opacity="1"></stop><stop offset="80%" stop-color="#ffc0c9" stop-opacity="1"></stop></linearGradient></defs><g transform="translate(900, 600)"><path d="M-243.4 0C-214 -29 -184.6 -58.1 -168 -97C-151.4 -135.9 -147.6 -184.7 -121.7 -210.8C-95.8 -236.8 -47.9 -240.1 0 -243.4L0 0Z" fill="#ffe0e4"></path><path d="M-182.5 0C-160.5 -21.8 -138.5 -43.6 -126 -72.8C-113.6 -101.9 -110.7 -138.5 -91.3 -158.1C-71.9 -177.6 -35.9 -180.1 0 -182.5L0 0Z" fill="#ffa0af"></path><path d="M-121.7 0C-107 -14.5 -92.3 -29 -84 -48.5C-75.7 -68 -73.8 -92.4 -60.8 -105.4C-47.9 -118.4 -24 -120 0 -121.7L0 0Z" fill="#ff547d"></path><path d="M-60.8 0C-53.5 -7.3 -46.2 -14.5 -42 -24.3C-37.9 -34 -36.9 -46.2 -30.4 -52.7C-24 -59.2 -12 -60 0 -60.8L0 0Z" fill="#ff0066"></path></g><g transform="translate(0, 0)"><path d="M243.4 0C222.8 34.1 202.2 68.2 184.5 106.5C166.8 144.8 151.9 187.3 121.7 210.8C91.4 234.3 45.7 238.8 0 243.4L0 0Z" fill="#ffe0e4"></path><path d="M182.5 0C167.1 25.6 151.6 51.2 138.3 79.9C125.1 108.6 114 140.4 91.3 158.1C68.6 175.7 34.3 179.1 0 182.5L0 0Z" fill="#ffa0af"></path><path d="M121.7 0C111.4 17.1 101.1 34.1 92.2 53.2C83.4 72.4 76 93.6 60.8 105.4C45.7 117.1 22.9 119.4 0 121.7L0 0Z" fill="#ff547d"></path><path d="M60.8 0C55.7 8.5 50.5 17.1 46.1 26.6C41.7 36.2 38 46.8 30.4 52.7C22.9 58.6 11.4 59.7 0 60.8L0 0Z" fill="#ff0066"></path></g></svg>