<svg xmlns="http://www.w3.org/2000/svg"><circle r="3.05" fill="#fff"/><circle cx="51.7" cy="13" r="3.05" fill="#fff"/><circle cx="100.4" cy="23" r="3.05" fill="#fff"/><circle cx="143.1" cy="27" r="3.05" fill="#fff"/><circle cx="180.8" cy="26" r="3.05" fill="#fff"/><circle cx="217.5" cy="24" r="3.05" fill="#fff"/><circle cx="254.2" cy="22" r="3.05" fill="#fff"/><circle cx="290.9" cy="20" r="3.05" fill="#fff"/><circle cx="324.6" cy="15" r="3.05" fill="#fff"/><circle cx="356.3" cy="8" r="3.05" fill="#fff"/><circle cx="385" cy="-2" r="3.05" fill="#fff"/><circle cx="414.7" cy="-11" r="3.05" fill="#fff"/><circle cx="450.4" cy="-14" r="3.05" fill="#fff"/><circle cx="491.1" cy="-12" r="3.05" fill="#fff"/><circle cx="535.8" cy="-6" r="3.05" fill="#fff"/><circle cx="578.5" cy="-2" r="3.05" fill="#fff"/><circle cx="616.2" cy="-3" r="3.05" fill="#fff"/><circle cx="648.9" cy="-9" r="3.05" fill="#fff"/><circle cx="681.6" cy="-15" r="3.05" fill="#fff"/><circle cx="717.3" cy="-18" r="3.05" fill="#fff"/><circle cx="759" cy="-15" r="3.05" fill="#fff"/><circle cx="808.7" cy="-4" r="3.05" fill="#fff"/><circle cx="862.4" cy="11" r="3.05" fill="#fff"/><circle cx="916.1" cy="26" r="3.05" fill="#fff"/><circle cx="-13" cy="25.7" r="3.05" fill="#fff"/><circle cx="38.7" cy="38.7" r="3.05" fill="#fff"/><circle cx="88.4" cy="49.7" r="3.05" fill="#fff"/><circle cx="133.1" cy="55.7" r="3.05" fill="#fff"/><circle cx="172.8" cy="56.7" r="3.05" fill="#fff"/><circle cx="211.5" cy="56.7" r="3.05" fill="#fff"/><circle cx="250.2" cy="56.7" r="3.05" fill="#fff"/><circle cx="288.9" cy="56.7" r="3.05" fill="#fff"/><circle cx="325.6" cy="54.7" r="3.05" fill="#fff"/><circle cx="358.3" cy="48.7" r="3.05" fill="#fff"/><circle cx="388" cy="39.7" r="3.05" fill="#fff"/><circle cx="420.7" cy="33.7" r="3.05" fill="#fff"/><circle cx="459.4" cy="33.7" r="3.05" fill="#fff"/><circle cx="502.1" cy="37.7" r="3.05" fill="#fff"/><circle cx="545.8" cy="42.7" r="3.05" fill="#fff"/><circle cx="587.5" cy="45.7" r="3.05" fill="#fff"/><circle cx="622.2" cy="41.7" r="3.05" fill="#fff"/><circle cx="653.9" cy="34.7" r="3.05" fill="#fff"/><circle cx="684.6" cy="26.7" r="3.05" fill="#fff"/><circle cx="719.3" cy="22.7" r="3.05" fill="#fff"/><circle cx="762" cy="26.7" r="3.05" fill="#fff"/><circle cx="811.7" cy="37.7" r="3.05" fill="#fff"/><circle cx="865.4" cy="52.7" r="3.05" fill="#fff"/><circle cx="917.1" cy="65.7" r="3.05" fill="#fff"/><circle cx="-23" cy="54.4" r="3.05" fill="#fff"/><circle cx="27.7" cy="66.4" r="3.05" fill="#fff"/><circle cx="77.4" cy="77.4" r="3.05" fill="#fff"/><circle cx="123.1" cy="84.4" r="3.05" fill="#fff"/><circle cx="165.8" cy="88.4" r="3.05" fill="#fff"/><circle cx="207.5" cy="91.4" r="3.05" fill="#fff"/><circle cx="249.2" cy="94.4" r="3.05" fill="#fff"/><circle cx="289.9" cy="96.4" r="3.05" fill="#fff"/><circle cx="329.6" cy="97.4" r="3.05" fill="#fff"/><circle cx="364.3" cy="93.4" r="3.05" fill="#fff"/><circle cx="397" cy="87.4" r="3.05" fill="#fff"/><circle cx="430.7" cy="82.4" r="3.05" fill="#fff"/><circle cx="470.4" cy="83.4" r="3.05" fill="#fff"/><circle cx="513.1" cy="87.4" r="3.05" fill="#fff"/><circle cx="555.8" cy="91.4" r="3.05" fill="#fff"/><circle cx="594.5" cy="91.4" r="3.05" fill="#fff"/><circle cx="627.2" cy="85.4" r="3.05" fill="#fff"/><circle cx="655.9" cy="75.4" r="3.05" fill="#fff"/><circle cx="684.6" cy="65.4" r="3.05" fill="#fff"/><circle cx="718.3" cy="60.4" r="3.05" fill="#fff"/><circle cx="759" cy="62.4" r="3.05" fill="#fff"/><circle cx="808.7" cy="73.4" r="3.05" fill="#fff"/><circle cx="861.4" cy="87.4" r="3.05" fill="#fff"/><circle cx="911.1" cy="98.4" r="3.05" fill="#fff"/><circle cx="-25" cy="91.1" r="3.05" fill="#fff"/><circle cx="22.7" cy="100.1" r="3.05" fill="#fff"/><circle cx="70.4" cy="109.1" r="3.05" fill="#fff"/><circle cx="116.1" cy="116.1" r="3.05" fill="#fff"/><circle cx="159.8" cy="121.1" r="3.05" fill="#fff"/><circle cx="204.5" cy="127.1" r="3.05" fill="#fff"/><circle cx="249.2" cy="133.1" r="3.05" fill="#fff"/><circle cx="293.9" cy="139.1" r="3.05" fill="#fff"/><circle cx="336.6" cy="143.1" r="3.05" fill="#fff"/><circle cx="373.3" cy="141.1" r="3.05" fill="#fff"/><circle cx="408" cy="137.1" r="3.05" fill="#fff"/><circle cx="442.7" cy="133.1" r="3.05" fill="#fff"/><circle cx="481.4" cy="133.1" r="3.05" fill="#fff"/><circle cx="522.1" cy="135.1" r="3.05" fill="#fff"/><circle cx="563.8" cy="138.1" r="3.05" fill="#fff"/><circle cx="599.5" cy="135.1" r="3.05" fill="#fff"/><circle cx="629.2" cy="126.1" r="3.05" fill="#fff"/><circle cx="655.9" cy="114.1" r="3.05" fill="#fff"/><circle cx="682.6" cy="102.1" r="3.05" fill="#fff"/><circle cx="714.3" cy="95.1" r="3.05" fill="#fff"/><circle cx="754" cy="96.1" r="3.05" fill="#fff"/><circle cx="802.7" cy="106.1" r="3.05" fill="#fff"/><circle cx="853.4" cy="118.1" r="3.05" fill="#fff"/><circle cx="901.1" cy="127.1" r="3.05" fill="#fff"/><circle cx="-18" cy="136.8" r="3.05" fill="#fff"/><circle cx="24.7" cy="140.8" r="3.05" fill="#fff"/><circle cx="67.4" cy="144.8" r="3.05" fill="#fff"/><circle cx="111.1" cy="149.8" r="3.05" fill="#fff"/><circle cx="154.8" cy="154.8" r="3.05" fill="#fff"/><circle cx="200.5" cy="161.8" r="3.05" fill="#fff"/><circle cx="248.2" cy="170.8" r="3.05" fill="#fff"/><circle cx="295.9" cy="179.8" r="3.05" fill="#fff"/><circle cx="341.6" cy="186.8" r="3.05" fill="#fff"/><circle cx="381.3" cy="187.8" r="3.05" fill="#fff"/><circle cx="418" cy="185.8" r="3.05" fill="#fff"/><circle cx="452.7" cy="181.8" r="3.05" fill="#fff"/><circle cx="490.4" cy="180.8" r="3.05" fill="#fff"/><circle cx="529.1" cy="180.8" r="3.05" fill="#fff"/><circle cx="567.8" cy="180.8" r="3.05" fill="#fff"/><circle cx="601.5" cy="175.8" r="3.05" fill="#fff"/><circle cx="630.2" cy="165.8" r="3.05" fill="#fff"/><circle cx="654.9" cy="151.8" r="3.05" fill="#fff"/><circle cx="681.6" cy="139.8" r="3.05" fill="#fff"/><circle cx="712.3" cy="131.8" r="3.05" fill="#fff"/><circle cx="750" cy="130.8" r="3.05" fill="#fff"/><circle cx="796.7" cy="138.8" r="3.05" fill="#fff"/><circle cx="846.4" cy="149.8" r="3.05" fill="#fff"/><circle cx="892.1" cy="156.8" r="3.05" fill="#fff"/><circle cx="-5" cy="188.5" r="3.05" fill="#fff"/><circle cx="31.7" cy="186.5" r="3.05" fill="#fff"/><circle cx="68.4" cy="184.5" r="3.05" fill="#fff"/><circle cx="106.1" cy="183.5" r="3.05" fill="#fff"/><circle cx="147.8" cy="186.5" r="3.05" fill="#fff"/><circle cx="193.5" cy="193.5" r="3.05" fill="#fff"/><circle cx="242.2" cy="203.5" r="3.05" fill="#fff"/><circle cx="292.9" cy="215.5" r="3.05" fill="#fff"/><circle cx="341.6" cy="225.5" r="3.05" fill="#fff"/><circle cx="384.3" cy="229.5" r="3.05" fill="#fff"/><circle cx="423" cy="229.5" r="3.05" fill="#fff"/><circle cx="458.7" cy="226.5" r="3.05" fill="#fff"/><circle cx="495.4" cy="224.5" r="3.05" fill="#fff"/><circle cx="532.1" cy="222.5" r="3.05" fill="#fff"/><circle cx="567.8" cy="219.5" r="3.05" fill="#fff"/><circle cx="601.5" cy="214.5" r="3.05" fill="#fff"/><circle cx="630.2" cy="204.5" r="3.05" fill="#fff"/><circle cx="654.9" cy="190.5" r="3.05" fill="#fff"/><circle cx="681.6" cy="178.5" r="3.05" fill="#fff"/><circle cx="711.3" cy="169.5" r="3.05" fill="#fff"/><circle cx="749" cy="168.5" r="3.05" fill="#fff"/><circle cx="793.7" cy="174.5" r="3.05" fill="#fff"/><circle cx="841.4" cy="183.5" r="3.05" fill="#fff"/><circle cx="886.1" cy="189.5" r="3.05" fill="#fff"/><circle cx="8" cy="240.2" r="3.05" fill="#fff"/><circle cx="38.7" cy="232.2" r="3.05" fill="#fff"/><circle cx="69.4" cy="224.2" r="3.05" fill="#fff"/><circle cx="102.1" cy="218.2" r="3.05" fill="#fff"/><circle cx="139.8" cy="217.2" r="3.05" fill="#fff"/><circle cx="183.5" cy="222.2" r="3.05" fill="#fff"/><circle cx="232.2" cy="232.2" r="3.05" fill="#fff"/><circle cx="283.9" cy="245.2" r="3.05" fill="#fff"/><circle cx="334.6" cy="257.2" r="3.05" fill="#fff"/><circle cx="381.3" cy="265.2" r="3.05" fill="#fff"/><circle cx="421" cy="266.2" r="3.05" fill="#fff"/><circle cx="458.7" cy="265.2" r="3.05" fill="#fff"/><circle cx="494.4" cy="262.2" r="3.05" fill="#fff"/><circle cx="530.1" cy="259.2" r="3.05" fill="#fff"/><circle cx="565.8" cy="256.2" r="3.05" fill="#fff"/><circle cx="599.5" cy="251.2" r="3.05" fill="#fff"/><circle cx="629.2" cy="242.2" r="3.05" fill="#fff"/><circle cx="655.9" cy="230.2" r="3.05" fill="#fff"/><circle cx="682.6" cy="218.2" r="3.05" fill="#fff"/><circle cx="714.3" cy="211.2" r="3.05" fill="#fff"/><circle cx="751" cy="209.2" r="3.05" fill="#fff"/><circle cx="793.7" cy="213.2" r="3.05" fill="#fff"/><circle cx="839.4" cy="220.2" r="3.05" fill="#fff"/><circle cx="883.1" cy="225.2" r="3.05" fill="#fff"/><circle cx="14" cy="284.9" r="3.05" fill="#fff"/><circle cx="42.7" cy="274.9" r="3.05" fill="#fff"/><circle cx="69.4" cy="262.9" r="3.05" fill="#fff"/><circle cx="97.1" cy="251.9" r="3.05" fill="#fff"/><circle cx="130.8" cy="246.9" r="3.05" fill="#fff"/><circle cx="171.5" cy="248.9" r="3.05" fill="#fff"/><circle cx="219.2" cy="257.9" r="3.05" fill="#fff"/><circle cx="270.9" cy="270.9" r="3.05" fill="#fff"/><circle cx="323.6" cy="284.9" r="3.05" fill="#fff"/><circle cx="371.3" cy="293.9" r="3.05" fill="#fff"/><circle cx="414" cy="297.9" r="3.05" fill="#fff"/><circle cx="452.7" cy="297.9" r="3.05" fill="#fff"/><circle cx="489.4" cy="295.9" r="3.05" fill="#fff"/><circle cx="524.1" cy="291.9" r="3.05" fill="#fff"/><circle cx="559.8" cy="288.9" r="3.05" fill="#fff"/><circle cx="594.5" cy="284.9" r="3.05" fill="#fff"/><circle cx="626.2" cy="277.9" r="3.05" fill="#fff"/><circle cx="655.9" cy="268.9" r="3.05" fill="#fff"/><circle cx="685.6" cy="259.9" r="3.05" fill="#fff"/><circle cx="717.3" cy="252.9" r="3.05" fill="#fff"/><circle cx="753" cy="249.9" r="3.05" fill="#fff"/><circle cx="793.7" cy="251.9" r="3.05" fill="#fff"/><circle cx="838.4" cy="257.9" r="3.05" fill="#fff"/><circle cx="883.1" cy="263.9" r="3.05" fill="#fff"/><circle cx="13" cy="322.6" r="3.05" fill="#fff"/><circle cx="41.7" cy="312.6" r="3.05" fill="#fff"/><circle cx="67.4" cy="299.6" r="3.05" fill="#fff"/><circle cx="94.1" cy="287.6" r="3.05" fill="#fff"/><circle cx="123.8" cy="278.6" r="3.05" fill="#fff"/><circle cx="161.5" cy="277.6" r="3.05" fill="#fff"/><circle cx="207.2" cy="284.6" r="3.05" fill="#fff"/><circle cx="256.9" cy="295.6" r="3.05" fill="#fff"/><circle cx="309.6" cy="309.6" r="3.05" fill="#fff"/><circle cx="359.3" cy="320.6" r="3.05" fill="#fff"/><circle cx="404" cy="326.6" r="3.05" fill="#fff"/><circle cx="442.7" cy="326.6" r="3.05" fill="#fff"/><circle cx="478.4" cy="323.6" r="3.05" fill="#fff"/><circle cx="514.1" cy="320.6" r="3.05" fill="#fff"/><circle cx="549.8" cy="317.6" r="3.05" fill="#fff"/><circle cx="586.5" cy="315.6" r="3.05" fill="#fff"/><circle cx="621.2" cy="311.6" r="3.05" fill="#fff"/><circle cx="654.9" cy="306.6" r="3.05" fill="#fff"/><circle cx="686.6" cy="299.6" r="3.05" fill="#fff"/><circle cx="719.3" cy="293.6" r="3.05" fill="#fff"/><circle cx="754" cy="289.6" r="3.05" fill="#fff"/><circle cx="793.7" cy="290.6" r="3.05" fill="#fff"/><circle cx="837.4" cy="295.6" r="3.05" fill="#fff"/><circle cx="883.1" cy="302.6" r="3.05" fill="#fff"/><circle cx="6" cy="354.3" r="3.05" fill="#fff"/><circle cx="37.7" cy="347.3" r="3.05" fill="#fff"/><circle cx="66.4" cy="337.3" r="3.05" fill="#fff"/><circle cx="93.1" cy="325.3" r="3.05" fill="#fff"/><circle cx="121.8" cy="315.3" r="3.05" fill="#fff"/><circle cx="157.5" cy="312.3" r="3.05" fill="#fff"/><circle cx="199.2" cy="315.3" r="3.05" fill="#fff"/><circle cx="247.9" cy="325.3" r="3.05" fill="#fff"/><circle cx="298.6" cy="337.3" r="3.05" fill="#fff"/><circle cx="348.3" cy="348.3" r="3.05" fill="#fff"/><circle cx="392" cy="353.3" r="3.05" fill="#fff"/><circle cx="430.7" cy="353.3" r="3.05" fill="#fff"/><circle cx="465.4" cy="349.3" r="3.05" fill="#fff"/><circle cx="500.1" cy="345.3" r="3.05" fill="#fff"/><circle cx="536.8" cy="343.3" r="3.05" fill="#fff"/><circle cx="574.5" cy="342.3" r="3.05" fill="#fff"/><circle cx="613.2" cy="342.3" r="3.05" fill="#fff"/><circle cx="649.9" cy="340.3" r="3.05" fill="#fff"/><circle cx="685.6" cy="337.3" r="3.05" fill="#fff"/><circle cx="719.3" cy="332.3" r="3.05" fill="#fff"/><circle cx="754" cy="328.3" r="3.05" fill="#fff"/><circle cx="792.7" cy="328.3" r="3.05" fill="#fff"/><circle cx="835.4" cy="332.3" r="3.05" fill="#fff"/><circle cx="881.1" cy="339.3" r="3.05" fill="#fff"/><circle cx="-3" cy="384" r="3.05" fill="#fff"/><circle cx="33.7" cy="382" r="3.05" fill="#fff"/><circle cx="65.4" cy="375" r="3.05" fill="#fff"/><circle cx="94.1" cy="365" r="3.05" fill="#fff"/><circle cx="123.8" cy="356" r="3.05" fill="#fff"/><circle cx="157.5" cy="351" r="3.05" fill="#fff"/><circle cx="198.2" cy="353" r="3.05" fill="#fff"/><circle cx="243.9" cy="360" r="3.05" fill="#fff"/><circle cx="292.6" cy="370" r="3.05" fill="#fff"/><circle cx="339.3" cy="378" r="3.05" fill="#fff"/><circle cx="382" cy="382" r="3.05" fill="#fff"/><circle cx="419.7" cy="381" r="3.05" fill="#fff"/><circle cx="453.4" cy="376" r="3.05" fill="#fff"/><circle cx="487.1" cy="371" r="3.05" fill="#fff"/><circle cx="523.8" cy="369" r="3.05" fill="#fff"/><circle cx="563.5" cy="370" r="3.05" fill="#fff"/><circle cx="604.2" cy="372" r="3.05" fill="#fff"/><circle cx="644.9" cy="374" r="3.05" fill="#fff"/><circle cx="682.6" cy="373" r="3.05" fill="#fff"/><circle cx="717.3" cy="369" r="3.05" fill="#fff"/><circle cx="752" cy="365" r="3.05" fill="#fff"/><circle cx="789.7" cy="364" r="3.05" fill="#fff"/><circle cx="832.4" cy="368" r="3.05" fill="#fff"/><circle cx="879.1" cy="376" r="3.05" fill="#fff"/><circle cx="-12" cy="413.7" r="3.05" fill="#fff"/><circle cx="27.7" cy="414.7" r="3.05" fill="#fff"/><circle cx="63.4" cy="411.7" r="3.05" fill="#fff"/><circle cx="95.1" cy="404.7" r="3.05" fill="#fff"/><circle cx="126.8" cy="397.7" r="3.05" fill="#fff"/><circle cx="160.5" cy="392.7" r="3.05" fill="#fff"/><circle cx="199.2" cy="392.7" r="3.05" fill="#fff"/><circle cx="243.9" cy="398.7" r="3.05" fill="#fff"/><circle cx="290.6" cy="406.7" r="3.05" fill="#fff"/><circle cx="335.3" cy="412.7" r="3.05" fill="#fff"/><circle cx="377" cy="415.7" r="3.05" fill="#fff"/><circle cx="412.7" cy="412.7" r="3.05" fill="#fff"/><circle cx="446.4" cy="407.7" r="3.05" fill="#fff"/><circle cx="480.1" cy="402.7" r="3.05" fill="#fff"/><circle cx="516.8" cy="400.7" r="3.05" fill="#fff"/><circle cx="556.5" cy="401.7" r="3.05" fill="#fff"/><circle cx="599.2" cy="405.7" r="3.05" fill="#fff"/><circle cx="640.9" cy="408.7" r="3.05" fill="#fff"/><circle cx="679.6" cy="408.7" r="3.05" fill="#fff"/><circle cx="715.3" cy="405.7" r="3.05" fill="#fff"/><circle cx="750" cy="401.7" r="3.05" fill="#fff"/><circle cx="787.7" cy="400.7" r="3.05" fill="#fff"/><circle cx="829.4" cy="403.7" r="3.05" fill="#fff"/><circle cx="878.1" cy="413.7" r="3.05" fill="#fff"/><circle cx="-19" cy="445.4" r="3.05" fill="#fff"/><circle cx="22.7" cy="448.4" r="3.05" fill="#fff"/><circle cx="60.4" cy="447.4" r="3.05" fill="#fff"/><circle cx="95.1" cy="443.4" r="3.05" fill="#fff"/><circle cx="127.8" cy="437.4" r="3.05" fill="#fff"/><circle cx="162.5" cy="433.4" r="3.05" fill="#fff"/><circle cx="202.2" cy="434.4" r="3.05" fill="#fff"/><circle cx="245.9" cy="439.4" r="3.05" fill="#fff"/><circle cx="291.6" cy="446.4" r="3.05" fill="#fff"/><circle cx="335.3" cy="451.4" r="3.05" fill="#fff"/><circle cx="376" cy="453.4" r="3.05" fill="#fff"/><circle cx="411.7" cy="450.4" r="3.05" fill="#fff"/><circle cx="446.4" cy="446.4" r="3.05" fill="#fff"/><circle cx="481.1" cy="442.4" r="3.05" fill="#fff"/><circle cx="517.8" cy="440.4" r="3.05" fill="#fff"/><circle cx="557.5" cy="441.4" r="3.05" fill="#fff"/><circle cx="599.2" cy="444.4" r="3.05" fill="#fff"/><circle cx="640.9" cy="447.4" r="3.05" fill="#fff"/><circle cx="679.6" cy="447.4" r="3.05" fill="#fff"/><circle cx="715.3" cy="444.4" r="3.05" fill="#fff"/><circle cx="750" cy="440.4" r="3.05" fill="#fff"/><circle cx="786.7" cy="438.4" r="3.05" fill="#fff"/><circle cx="829.4" cy="442.4" r="3.05" fill="#fff"/><circle cx="878.1" cy="452.4" r="3.05" fill="#fff"/><circle cx="-21" cy="482.1" r="3.05" fill="#fff"/><circle cx="18.7" cy="483.1" r="3.05" fill="#fff"/><circle cx="57.4" cy="483.1" r="3.05" fill="#fff"/><circle cx="93.1" cy="480.1" r="3.05" fill="#fff"/><circle cx="127.8" cy="476.1" r="3.05" fill="#fff"/><circle cx="164.5" cy="474.1" r="3.05" fill="#fff"/><circle cx="205.2" cy="476.1" r="3.05" fill="#fff"/><circle cx="248.9" cy="481.1" r="3.05" fill="#fff"/><circle cx="293.6" cy="487.1" r="3.05" fill="#fff"/><circle cx="337.3" cy="492.1" r="3.05" fill="#fff"/><circle cx="379" cy="495.1" r="3.05" fill="#fff"/><circle cx="416.7" cy="494.1" r="3.05" fill="#fff"/><circle cx="452.4" cy="491.1" r="3.05" fill="#fff"/><circle cx="488.1" cy="488.1" r="3.05" fill="#fff"/><circle cx="525.8" cy="487.1" r="3.05" fill="#fff"/><circle cx="565.5" cy="488.1" r="3.05" fill="#fff"/><circle cx="606.2" cy="490.1" r="3.05" fill="#fff"/><circle cx="645.9" cy="491.1" r="3.05" fill="#fff"/><circle cx="684.6" cy="491.1" r="3.05" fill="#fff"/><circle cx="719.3" cy="487.1" r="3.05" fill="#fff"/><circle cx="753" cy="482.1" r="3.05" fill="#fff"/><circle cx="789.7" cy="480.1" r="3.05" fill="#fff"/><circle cx="831.4" cy="483.1" r="3.05" fill="#fff"/><circle cx="879.1" cy="492.1" r="3.05" fill="#fff"/><circle cx="-18" cy="523.8" r="3.05" fill="#fff"/><circle cx="19.7" cy="522.8" r="3.05" fill="#fff"/><circle cx="56.4" cy="520.8" r="3.05" fill="#fff"/><circle cx="93.1" cy="518.8" r="3.05" fill="#fff"/><circle cx="128.8" cy="515.8" r="3.05" fill="#fff"/><circle cx="167.5" cy="515.8" r="3.05" fill="#fff"/><circle cx="208.2" cy="517.8" r="3.05" fill="#fff"/><circle cx="251.9" cy="522.8" r="3.05" fill="#fff"/><circle cx="296.6" cy="528.8" r="3.05" fill="#fff"/><circle cx="341.3" cy="534.8" r="3.05" fill="#fff"/><circle cx="383" cy="537.8" r="3.05" fill="#fff"/><circle cx="423.7" cy="539.8" r="3.05" fill="#fff"/><circle cx="462.4" cy="539.8" r="3.05" fill="#fff"/><circle cx="500.1" cy="538.8" r="3.05" fill="#fff"/><circle cx="538.8" cy="538.8" r="3.05" fill="#fff"/><circle cx="577.5" cy="538.8" r="3.05" fill="#fff"/><circle cx="617.2" cy="539.8" r="3.05" fill="#fff"/><circle cx="654.9" cy="538.8" r="3.05" fill="#fff"/><circle cx="691.6" cy="536.8" r="3.05" fill="#fff"/><circle cx="725.3" cy="531.8" r="3.05" fill="#fff"/><circle cx="758" cy="525.8" r="3.05" fill="#fff"/><circle cx="793.7" cy="522.8" r="3.05" fill="#fff"/><circle cx="834.4" cy="524.8" r="3.05" fill="#fff"/><circle cx="880.1" cy="531.8" r="3.05" fill="#fff"/><circle cx="-11" cy="569.5" r="3.05" fill="#fff"/><circle cx="25.7" cy="567.5" r="3.05" fill="#fff"/><circle cx="61.4" cy="564.5" r="3.05" fill="#fff"/><circle cx="97.1" cy="561.5" r="3.05" fill="#fff"/><circle cx="133.8" cy="559.5" r="3.05" fill="#fff"/><circle cx="172.5" cy="559.5" r="3.05" fill="#fff"/><circle cx="213.2" cy="561.5" r="3.05" fill="#fff"/><circle cx="255.9" cy="565.5" r="3.05" fill="#fff"/><circle cx="299.6" cy="570.5" r="3.05" fill="#fff"/><circle cx="344.3" cy="576.5" r="3.05" fill="#fff"/><circle cx="388" cy="581.5" r="3.05" fill="#fff"/><circle cx="430.7" cy="585.5" r="3.05" fill="#fff"/><circle cx="472.4" cy="588.5" r="3.05" fill="#fff"/><circle cx="513.1" cy="590.5" r="3.05" fill="#fff"/><circle cx="552.8" cy="591.5" r="3.05" fill="#fff"/><circle cx="590.5" cy="590.5" r="3.05" fill="#fff"/><circle cx="628.2" cy="589.5" r="3.05" fill="#fff"/><circle cx="664.9" cy="587.5" r="3.05" fill="#fff"/><circle cx="698.6" cy="582.5" r="3.05" fill="#fff"/><circle cx="731.3" cy="576.5" r="3.05" fill="#fff"/><circle cx="762" cy="568.5" r="3.05" fill="#fff"/><circle cx="796.7" cy="564.5" r="3.05" fill="#fff"/><circle cx="835.4" cy="564.5" r="3.05" fill="#fff"/><circle cx="880.1" cy="570.5" r="3.05" fill="#fff"/><circle cx="-1" cy="618.2" r="3.05" fill="#fff"/><circle cx="33.7" cy="614.2" r="3.05" fill="#fff"/><circle cx="69.4" cy="611.2" r="3.05" fill="#fff"/><circle cx="106.1" cy="609.2" r="3.05" fill="#fff"/><circle cx="143.8" cy="608.2" r="3.05" fill="#fff"/><circle cx="182.5" cy="608.2" r="3.05" fill="#fff"/><circle cx="222.2" cy="609.2" r="3.05" fill="#fff"/><circle cx="262.9" cy="611.2" r="3.05" fill="#fff"/><circle cx="305.6" cy="615.2" r="3.05" fill="#fff"/><circle cx="348.3" cy="619.2" r="3.05" fill="#fff"/><circle cx="393" cy="625.2" r="3.05" fill="#fff"/><circle cx="436.7" cy="630.2" r="3.05" fill="#fff"/><circle cx="480.4" cy="635.2" r="3.05" fill="#fff"/><circle cx="523.1" cy="639.2" r="3.05" fill="#fff"/><circle cx="562.8" cy="640.2" r="3.05" fill="#fff"/><circle cx="601.5" cy="640.2" r="3.05" fill="#fff"/><circle cx="637.2" cy="637.2" r="3.05" fill="#fff"/><circle cx="670.9" cy="632.2" r="3.05" fill="#fff"/><circle cx="703.6" cy="626.2" r="3.05" fill="#fff"/><circle cx="733.3" cy="617.2" r="3.05" fill="#fff"/><circle cx="763" cy="608.2" r="3.05" fill="#fff"/><circle cx="795.7" cy="602.2" r="3.05" fill="#fff"/><circle cx="832.4" cy="600.2" r="3.05" fill="#fff"/><circle cx="874.1" cy="603.2" r="3.05" fill="#fff"/><circle cx="8" cy="665.9" r="3.05" fill="#fff"/><circle cx="42.7" cy="661.9" r="3.05" fill="#fff"/><circle cx="79.4" cy="659.9" r="3.05" fill="#fff"/><circle cx="118.1" cy="659.9" r="3.05" fill="#fff"/><circle cx="157.8" cy="660.9" r="3.05" fill="#fff"/><circle cx="196.5" cy="660.9" r="3.05" fill="#fff"/><circle cx="234.2" cy="659.9" r="3.05" fill="#fff"/><circle cx="272.9" cy="659.9" r="3.05" fill="#fff"/><circle cx="311.6" cy="659.9" r="3.05" fill="#fff"/><circle cx="352.3" cy="661.9" r="3.05" fill="#fff"/><circle cx="395" cy="665.9" r="3.05" fill="#fff"/><circle cx="438.7" cy="670.9" r="3.05" fill="#fff"/><circle cx="483.4" cy="676.9" r="3.05" fill="#fff"/><circle cx="527.1" cy="681.9" r="3.05" fill="#fff"/><circle cx="567.8" cy="683.9" r="3.05" fill="#fff"/><circle cx="605.5" cy="682.9" r="3.05" fill="#fff"/><circle cx="640.2" cy="678.9" r="3.05" fill="#fff"/><circle cx="673.9" cy="673.9" r="3.05" fill="#fff"/><circle cx="704.6" cy="665.9" r="3.05" fill="#fff"/><circle cx="733.3" cy="655.9" r="3.05" fill="#fff"/><circle cx="762" cy="645.9" r="3.05" fill="#fff"/><circle cx="791.7" cy="636.9" r="3.05" fill="#fff"/><circle cx="826.4" cy="632.9" r="3.05" fill="#fff"/><circle cx="866.1" cy="633.9" r="3.05" fill="#fff"/><circle cx="15" cy="711.6" r="3.05" fill="#fff"/><circle cx="50.7" cy="708.6" r="3.05" fill="#fff"/><circle cx="89.4" cy="708.6" r="3.05" fill="#fff"/><circle cx="130.1" cy="710.6" r="3.05" fill="#fff"/><circle cx="169.8" cy="711.6" r="3.05" fill="#fff"/><circle cx="208.5" cy="711.6" r="3.05" fill="#fff"/><circle cx="246.2" cy="710.6" r="3.05" fill="#fff"/><circle cx="281.9" cy="707.6" r="3.05" fill="#fff"/><circle cx="316.6" cy="703.6" r="3.05" fill="#fff"/><circle cx="353.3" cy="701.6" r="3.05" fill="#fff"/><circle cx="393" cy="702.6" r="3.05" fill="#fff"/><circle cx="436.7" cy="707.6" r="3.05" fill="#fff"/><circle cx="481.4" cy="713.6" r="3.05" fill="#fff"/><circle cx="525.1" cy="718.6" r="3.05" fill="#fff"/><circle cx="566.8" cy="721.6" r="3.05" fill="#fff"/><circle cx="604.5" cy="720.6" r="3.05" fill="#fff"/><circle cx="640.2" cy="717.6" r="3.05" fill="#fff"/><circle cx="672.9" cy="711.6" r="3.05" fill="#fff"/><circle cx="704.6" cy="704.6" r="3.05" fill="#fff"/><circle cx="733.3" cy="694.6" r="3.05" fill="#fff"/><circle cx="761" cy="683.6" r="3.05" fill="#fff"/><circle cx="789.7" cy="673.6" r="3.05" fill="#fff"/><circle cx="821.4" cy="666.6" r="3.05" fill="#fff"/><circle cx="858.1" cy="664.6" r="3.05" fill="#fff"/><circle cx="19" cy="754.3" r="3.05" fill="#fff"/><circle cx="54.7" cy="751.3" r="3.05" fill="#fff"/><circle cx="94.4" cy="752.3" r="3.05" fill="#fff"/><circle cx="137.1" cy="756.3" r="3.05" fill="#fff"/><circle cx="178.8" cy="759.3" r="3.05" fill="#fff"/><circle cx="217.5" cy="759.3" r="3.05" fill="#fff"/><circle cx="253.2" cy="756.3" r="3.05" fill="#fff"/><circle cx="285.9" cy="750.3" r="3.05" fill="#fff"/><circle cx="317.6" cy="743.3" r="3.05" fill="#fff"/><circle cx="351.3" cy="738.3" r="3.05" fill="#fff"/><circle cx="389" cy="737.3" r="3.05" fill="#fff"/><circle cx="431.7" cy="741.3" r="3.05" fill="#fff"/><circle cx="476.4" cy="747.3" r="3.05" fill="#fff"/><circle cx="521.1" cy="753.3" r="3.05" fill="#fff"/><circle cx="562.8" cy="756.3" r="3.05" fill="#fff"/><circle cx="600.5" cy="755.3" r="3.05" fill="#fff"/><circle cx="638.2" cy="754.3" r="3.05" fill="#fff"/><circle cx="672.9" cy="750.3" r="3.05" fill="#fff"/><circle cx="706.6" cy="745.3" r="3.05" fill="#fff"/><circle cx="737.3" cy="737.3" r="3.05" fill="#fff"/><circle cx="765" cy="726.3" r="3.05" fill="#fff"/><circle cx="791.7" cy="714.3" r="3.05" fill="#fff"/><circle cx="820.4" cy="704.3" r="3.05" fill="#fff"/><circle cx="854.1" cy="699.3" r="3.05" fill="#fff"/><circle cx="17" cy="791" r="3.05" fill="#fff"/><circle cx="54.7" cy="790" r="3.05" fill="#fff"/><circle cx="95.4" cy="792" r="3.05" fill="#fff"/><circle cx="139.1" cy="797" r="3.05" fill="#fff"/><circle cx="180.8" cy="800" r="3.05" fill="#fff"/><circle cx="218.5" cy="799" r="3.05" fill="#fff"/><circle cx="252.2" cy="794" r="3.05" fill="#fff"/><circle cx="282.9" cy="786" r="3.05" fill="#fff"/><circle cx="312.6" cy="777" r="3.05" fill="#fff"/><circle cx="345.3" cy="771" r="3.05" fill="#fff"/><circle cx="382" cy="769" r="3.05" fill="#fff"/><circle cx="425.7" cy="774" r="3.05" fill="#fff"/><circle cx="471.4" cy="781" r="3.05" fill="#fff"/><circle cx="517.1" cy="788" r="3.05" fill="#fff"/><circle cx="559.8" cy="792" r="3.05" fill="#fff"/><circle cx="599.5" cy="793" r="3.05" fill="#fff"/><circle cx="638.2" cy="793" r="3.05" fill="#fff"/><circle cx="675.9" cy="792" r="3.05" fill="#fff"/><circle cx="711.6" cy="789" r="3.05" fill="#fff"/><circle cx="745.3" cy="784" r="3.05" fill="#fff"/><circle cx="774" cy="774" r="3.05" fill="#fff"/><circle cx="799.7" cy="761" r="3.05" fill="#fff"/><circle cx="826.4" cy="749" r="3.05" fill="#fff"/><circle cx="857.1" cy="741" r="3.05" fill="#fff"/><circle cx="11" cy="823.7" r="3.05" fill="#fff"/><circle cx="48.7" cy="822.7" r="3.05" fill="#fff"/><circle cx="91.4" cy="826.7" r="3.05" fill="#fff"/><circle cx="135.1" cy="831.7" r="3.05" fill="#fff"/><circle cx="177.8" cy="835.7" r="3.05" fill="#fff"/><circle cx="215.5" cy="834.7" r="3.05" fill="#fff"/><circle cx="247.2" cy="827.7" r="3.05" fill="#fff"/><circle cx="275.9" cy="817.7" r="3.05" fill="#fff"/><circle cx="304.6" cy="807.7" r="3.05" fill="#fff"/><circle cx="337.3" cy="801.7" r="3.05" fill="#fff"/><circle cx="376" cy="801.7" r="3.05" fill="#fff"/><circle cx="420.7" cy="807.7" r="3.05" fill="#fff"/><circle cx="469.4" cy="817.7" r="3.05" fill="#fff"/><circle cx="516.1" cy="825.7" r="3.05" fill="#fff"/><circle cx="559.8" cy="830.7" r="3.05" fill="#fff"/><circle cx="600.5" cy="832.7" r="3.05" fill="#fff"/><circle cx="641.2" cy="834.7" r="3.05" fill="#fff"/><circle cx="681.9" cy="836.7" r="3.05" fill="#fff"/><circle cx="720.6" cy="836.7" r="3.05" fill="#fff"/><circle cx="756.3" cy="833.7" r="3.05" fill="#fff"/><circle cx="787" cy="825.7" r="3.05" fill="#fff"/><circle cx="812.7" cy="812.7" r="3.05" fill="#fff"/><circle cx="837.4" cy="798.7" r="3.05" fill="#fff"/><circle cx="866.1" cy="788.7" r="3.05" fill="#fff"/><circle cx="3" cy="854.4" r="3.05" fill="#fff"/><circle cx="41.7" cy="854.4" r="3.05" fill="#fff"/><circle cx="85.4" cy="859.4" r="3.05" fill="#fff"/><circle cx="131.1" cy="866.4" r="3.05" fill="#fff"/><circle cx="172.8" cy="869.4" r="3.05" fill="#fff"/><circle cx="209.5" cy="867.4" r="3.05" fill="#fff"/><circle cx="240.2" cy="859.4" r="3.05" fill="#fff"/><circle cx="266.9" cy="847.4" r="3.05" fill="#fff"/><circle cx="294.6" cy="836.4" r="3.05" fill="#fff"/><circle cx="329.3" cy="832.4" r="3.05" fill="#fff"/><circle cx="371" cy="835.4" r="3.05" fill="#fff"/><circle cx="418.7" cy="844.4" r="3.05" fill="#fff"/><circle cx="469.4" cy="856.4" r="3.05" fill="#fff"/><circle cx="518.1" cy="866.4" r="3.05" fill="#fff"/><circle cx="562.8" cy="872.4" r="3.05" fill="#fff"/><circle cx="605.5" cy="876.4" r="3.05" fill="#fff"/><circle cx="646.2" cy="878.4" r="3.05" fill="#fff"/><circle cx="687.9" cy="881.4" r="3.05" fill="#fff"/><circle cx="728.6" cy="883.4" r="3.05" fill="#fff"/><circle cx="766.3" cy="882.4" r="3.05" fill="#fff"/><circle cx="799" cy="876.4" r="3.05" fill="#fff"/><circle cx="826.7" cy="865.4" r="3.05" fill="#fff"/><circle cx="851.4" cy="851.4" r="3.05" fill="#fff"/><circle cx="878.1" cy="839.4" r="3.05" fill="#fff"/><circle cx="-7" cy="883.1" r="3.05" fill="#fff"/><circle cx="34.7" cy="886.1" r="3.05" fill="#fff"/><circle cx="80.4" cy="893.1" r="3.05" fill="#fff"/><circle cx="127.1" cy="901.1" r="3.05" fill="#fff"/><circle cx="170.8" cy="906.1" r="3.05" fill="#fff"/><circle cx="207.5" cy="904.1" r="3.05" fill="#fff"/><circle cx="236.2" cy="894.1" r="3.05" fill="#fff"/><circle cx="260.9" cy="880.1" r="3.05" fill="#fff"/><circle cx="289.6" cy="870.1" r="3.05" fill="#fff"/><circle cx="324.3" cy="866.1" r="3.05" fill="#fff"/><circle cx="368" cy="871.1" r="3.05" fill="#fff"/><circle cx="417.7" cy="882.1" r="3.05" fill="#fff"/><circle cx="469.4" cy="895.1" r="3.05" fill="#fff"/><circle cx="520.1" cy="907.1" r="3.05" fill="#fff"/><circle cx="565.8" cy="914.1" r="3.05" fill="#fff"/><circle cx="608.5" cy="918.1" r="3.05" fill="#fff"/><circle cx="649.2" cy="920.1" r="3.05" fill="#fff"/><circle cx="690.9" cy="923.1" r="3.05" fill="#fff"/><circle cx="731.6" cy="925.1" r="3.05" fill="#fff"/><circle cx="771.3" cy="926.1" r="3.05" fill="#fff"/><circle cx="807" cy="923.1" r="3.05" fill="#fff"/><circle cx="836.7" cy="914.1" r="3.05" fill="#fff"/><circle cx="863.4" cy="902.1" r="3.05" fill="#fff"/><circle cx="890.1" cy="890.1" r="3.05" fill="#fff"/></svg>